# xmcd CD database file
#
# Track frame offsets:
#	150
#	12314
#	24953
#	41024
#	56686
#	69395
#	80244
#	99410
#	119507
#	127582
#	143372
#	161178
#	176115
#	188011
#	199888
#	214123
#	227386
#	239198
#	252557
#	266440
#	281286
#	294730
#	305759
#	321691
#	333297
#
# Disc length: 4652 seconds
#
# Revision: 0
# Processed by: cddbd v1.5.2PL0 Copyright (c) Steve Scherf et al.
# Submitted via: CDex 1.70beta2
#
DISCID=77122a19
DTITLE=omnibus - Best Jazz Vocal 100 2 A Taste Of Love_Disc1
DYEAR=1900
DGENRE=Jazz
TTITLE0=LOVE IS A MANY SPLENDORED THING/ Nat King Cole
TTITLE1=THE END OF THE WORLD/ Julie London
TTITLE2=SUMMERTIME/ Lou Rawls
TTITLE3=AS TIME GOES BY/ Eve Boswell
TTITLE4=YOU`D BE SO NICE TO COME HOME TO/ Matt Dennis
TTITLE5=I LEFT MY HEART IN SAN FRANCISCO/ Peggy Lee
TTITLE6=LOVER COME BACK TO ME/ Cassandra Wilson
TTITLE7=WHAT A WONDERFUL WORLD/ Stacey Kent
TTITLE8=DAY BY DAY/ Joe Williams
TTITLE9=SOFTLY AS IN A MORNING SUNRISE/ Nancy Wilson
TTITLE10=`ROUND MIDNIGHT/ June Christy
TTITLE11=THE MAN I LOVE/ Dinah Shore
TTITLE12=MY FUNNY VALENTINE/ Ella Mae Morse
TTITLE13=SOMEONE TO WATCH OVER ME/ Jean Turner
TTITLE14=BESAME MUCHO/ Andy Russell
TTITLE15=STELLA BY STARLIGHT/ Sarah Vaughan
TTITLE16=MOON RIVER/ Danny Williams
TTITLE17=UNCHAINED MELODY/ Lena Horne
TTITLE18=BEI MIR BIST DU SCHON/ The Andrews Sisters
TTITLE19=LOVE LETTERS/ Les McCann
TTITLE20=ON THE SUNNY SIDE OF THE STREET/ Jo Stafford
TTITLE21=ALL OF ME/ Kay Starr
TTITLE22=MY FOOLISH HEART/ Donna Fuller
TTITLE23=HELLO. DOLLY/ Bing Crosby
TTITLE24=BODY AND SOUL/ Dakota Staton
EXTD=
EXTT0=
EXTT1=
EXTT2=
EXTT3=
EXTT4=
EXTT5=
EXTT6=
EXTT7=
EXTT8=
EXTT9=
EXTT10=
EXTT11=
EXTT12=
EXTT13=
EXTT14=
EXTT15=
EXTT16=
EXTT17=
EXTT18=
EXTT19=
EXTT20=
EXTT21=
EXTT22=
EXTT23=
EXTT24=
PLAYORDER=
